<?xml version="1.0" encoding="utf-8"?>
<svg xmlns="http://www.w3.org/2000/svg"
	xmlns:xlink="http://www.w3.org/1999/xlink"
	width="24px" height="20px" viewBox="0 0 24 20">
<path fillRule="evenodd" d="M 9.23 18.18C 9.23 17.17 8.41 16.36 7.38 16.36 6.36 16.36 5.54 17.17 5.54 18.18 5.54 19.19 6.36 19.99 7.38 19.99 8.41 19.99 9.23 19.19 9.23 18.18ZM 22.15 18.18C 22.15 17.17 21.33 16.36 20.31 16.36 19.28 16.36 18.46 17.17 18.46 18.18 18.46 19.19 19.28 19.99 20.31 19.99 21.33 19.99 22.15 19.19 22.15 18.18ZM 24 2.73C 24 2.23 23.58 1.82 23.08 1.82 23.08 1.82 5.75 1.82 5.75 1.82 5.61 1.14 5.6 0 4.62 0 4.62 0 0.92 0 0.92 0 0.42 0 0 0.41 0 0.91 0 1.41 0.42 1.82 0.92 1.82 0.92 1.82 3.87 1.82 3.87 1.82 3.87 1.82 6.42 13.51 6.42 13.51 6.22 13.92 5.54 15.01 5.54 15.45 5.54 15.95 5.96 16.36 6.46 16.36 6.46 16.36 21.23 16.36 21.23 16.36 21.73 16.36 22.15 15.95 22.15 15.45 22.15 14.95 21.73 14.54 21.23 14.54 21.23 14.54 7.96 14.54 7.96 14.54 8.11 14.26 8.31 13.96 8.31 13.63 8.31 13.31 8.18 12.95 8.12 12.64 8.12 12.64 23.18 10.91 23.18 10.91 23.65 10.85 24 10.45 24 10 24 10 24 2.73 24 2.73Z" fill="rgb(170, 155, 119)"/></svg>