<?xml version="1.0" encoding="utf-8"?>
<svg xmlns="http://www.w3.org/2000/svg"
	xmlns:xlink="http://www.w3.org/1999/xlink"
	width="15px" height="12px" viewBox="0 0 15 12">
<path fillRule="evenodd" d="M 15 2.34C 15 2.09 14.9 1.84 14.73 1.66 14.73 1.66 13.41 0.28 13.41 0.28 13.24 0.1 13-0 12.75-0 12.51-0 12.27 0.1 12.1 0.28 12.1 0.28 5.75 6.92 5.75 6.92 5.75 6.92 2.9 3.94 2.9 3.94 2.73 3.76 2.48 3.66 2.24 3.66 2 3.66 1.76 3.76 1.58 3.94 1.58 3.94 0.27 5.31 0.27 5.31 0.09 5.49-0 5.75-0 6-0 6.25 0.09 6.5 0.27 6.69 0.27 6.69 3.77 10.34 3.77 10.34 3.77 10.34 5.09 11.72 5.09 11.72 5.26 11.9 5.5 12 5.75 12 5.99 12 6.23 11.9 6.4 11.72 6.4 11.72 7.72 10.34 7.72 10.34 7.72 10.34 14.73 3.03 14.73 3.03 14.9 2.85 15 2.6 15 2.34Z" fill="rgb(169,155,119)"/></svg>