<?xml version="1.0" encoding="utf-8"?>
<svg xmlns="http://www.w3.org/2000/svg"
	xmlns:xlink="http://www.w3.org/1999/xlink"
	width="12px" height="8px" viewBox="0 0 12 8">
<path fillRule="evenodd" d="M 12 1.15C 12 1.04 11.95 0.91 11.88 0.83 11.88 0.83 11.28 0.14 11.28 0.14 11.21 0.06 11.1 0.01 11 0.01 10.91 0.01 10.8 0.06 10.73 0.14 10.73 0.14 6 5.54 6 5.54 6 5.54 1.27 0.14 1.27 0.14 1.2 0.06 1.09 0.01 1 0.01 0.89 0.01 0.79 0.06 0.72 0.14 0.72 0.14 0.12 0.83 0.12 0.83 0.05 0.91-0 1.04-0 1.15-0 1.26 0.05 1.38 0.12 1.46 0.12 1.46 5.72 7.86 5.72 7.86 5.8 7.95 5.91 8 6 8 6.1 8 6.21 7.95 6.28 7.86 6.28 7.86 11.88 1.46 11.88 1.46 11.95 1.38 12 1.26 12 1.15Z" fill="rgb(0,0,0)"/></svg>