<?xml version="1.0" encoding="utf-8"?>
<svg xmlns="http://www.w3.org/2000/svg"
	xmlns:xlink="http://www.w3.org/1999/xlink"
	width="34px" height="22px" viewBox="0 0 34 22">
<path fillRule="evenodd" d="M 33.59 5.83C 34.11 5.3 34.11 4.43 33.59 3.9 33.59 3.9 30.08 0.39 30.08 0.39 29.56-0.14 28.71-0.14 28.19 0.39 28.19 0.39 16.98 11.68 16.98 11.68 16.98 11.68 5.78 0.39 5.78 0.39 5.25-0.14 4.41-0.14 3.88 0.39 3.88 0.39 0.38 3.9 0.38 3.9-0.15 4.43-0.15 5.3 0.38 5.83 0.38 5.83 16.03 21.58 16.03 21.58 16.56 22.11 17.41 22.11 17.93 21.58 17.93 21.58 33.59 5.83 33.59 5.83Z" fill="rgb(255,255,255)"/></svg>