<?xml version="1.0" encoding="utf-8"?>
<svg xmlns="http://www.w3.org/2000/svg"
	xmlns:xlink="http://www.w3.org/1999/xlink"
	width="29px" height="24px" viewBox="0 0 29 24">
<path fillRule="evenodd" d="M 29 2.85C 27.94 3.32 26.78 3.66 25.58 3.79 26.81 3.04 27.75 1.86 28.2 0.45 27.05 1.15 25.77 1.65 24.42 1.91 23.34 0.73 21.79 0 20.08 0 16.78 0 14.13 2.72 14.13 6.06 14.13 6.53 14.19 7 14.28 7.45 9.35 7.18 4.95 4.78 2.02 1.11 1.5 2.01 1.21 3.04 1.21 4.16 1.21 6.26 2.26 8.12 3.86 9.21 2.88 9.17 1.96 8.89 1.17 8.44 1.17 8.46 1.17 8.5 1.17 8.51 1.17 11.46 3.22 13.89 5.94 14.46 5.44 14.59 4.91 14.66 4.37 14.66 3.99 14.66 3.62 14.63 3.25 14.57 4.01 16.97 6.2 18.71 8.81 18.77 6.77 20.4 4.21 21.36 1.43 21.36 0.93 21.36 0.47 21.34-0.01 21.28 2.63 23.01 5.76 24 9.12 24 20.06 24 26.04 14.78 26.04 6.77 26.04 6.51 26.04 6.25 26.02 5.98 27.18 5.12 28.2 4.05 29 2.85Z" fill="rgb(0, 172, 237)"/></svg>